HIERARCHY
ROOT Hips
{
	OFFSET 0.000000 0.000000 0.000000
	CHANNELS 6 Xposition Yposition Zposition Zrotation Yrotation Xrotation 
	JOINT LHipJoint
	{
		OFFSET 0.000000 0.000000 0.000000
		CHANNELS 3 Zrotation Yrotation Xrotation
		JOINT LeftUpLeg
		{
			OFFSET 1.363060 -1.794630 0.839290
			CHANNELS 3 Zrotation Yrotation Xrotation
			JOINT LeftLeg
			{
				OFFSET 2.448110 -6.726130 0.000000
				CHANNELS 3 Zrotation Yrotation Xrotation
				JOINT LeftFoot
				{
					OFFSET 2.562200 -7.039590 0.000000
					CHANNELS 3 Zrotation Yrotation Xrotation
					JOINT LeftToeBase
					{
						OFFSET 0.157640 -0.433110 2.322550
						CHANNELS 3 Zrotation Yrotation Xrotation
						End Site
						{
							OFFSET 0.000000 0.000000 0.000000
						}
					}
				}
			}
		}
	}
	JOINT RHipJoint
	{
		OFFSET 0.000000 0.000000 0.000000
		CHANNELS 3 Zrotation Yrotation Xrotation
		JOINT RightUpLeg
		{
			OFFSET -1.305520 -1.794630 0.839290
			CHANNELS 3 Zrotation Yrotation Xrotation
			JOINT RightLeg
			{
				OFFSET -2.542530 -6.985550 0.000000
				CHANNELS 3 Zrotation Yrotation Xrotation
				JOINT RightFoot
				{
					OFFSET -2.568260 -7.056230 0.000000
					CHANNELS 3 Zrotation Yrotation Xrotation
					JOINT RightToeBase
					{
						OFFSET -0.164730 -0.452590 2.363150
						CHANNELS 3 Zrotation Yrotation Xrotation
						End Site
						{
							OFFSET 0.000000 0.000000 0.000000
						}
					}
				}
			}
		}
	}
}
MOTION
Frames: 22
Frame Time: 0.008333
24.398815 15.936425 2.826508 -155.056251 -81.030405 -163.385383 -8.206102 -1.625344 0.443953 -13.164720 -2.553271 -78.244493 -2.427676 3.507160 44.680491 2.735398 8.556655 -14.545056 -0.480100 -0.000000 -23.187801 11.081823 -0.619095 -2.647350 4.763866 0.638153 -34.178589 -0.140974 -3.766199 58.574155 0.116532 4.694782 1.785131 0.740800 -0.000000 -71.480700
24.235305 15.835683 2.837874 -154.925461 -80.743468 -163.712237 -8.214574 -1.720329 0.124239 -13.348742 -2.108129 -78.978020 -2.224323 3.891394 48.022679 2.797774 8.665196 -15.886953 -0.774300 0.000000 -21.194800 11.162828 -0.519890 -2.695657 4.463063 0.667350 -35.084000 -0.341107 -3.957016 61.525219 0.058808 4.211630 0.605977 0.587700 0.000000 -70.802500
24.075434 15.736038 2.847854 -155.009275 -80.476109 -163.870390 -8.216497 -1.818671 -0.221840 -13.590138 -1.649221 -79.554800 -2.032545 4.242530 51.211886 2.874181 8.820455 -17.380786 -1.107700 -0.000000 -19.618700 11.248127 -0.411723 -2.762082 4.131521 0.685401 -35.974158 -0.548400 -4.154117 64.410134 0.010840 3.815659 -0.472560 0.468700 0.000000 -70.168601
23.918978 15.638723 2.856367 -155.330944 -80.239790 -163.835355 -8.213566 -1.915163 -0.587142 -13.888439 -1.194207 -79.942882 -1.856561 4.555600 54.194094 2.964964 9.023533 -18.999202 -1.479800 -0.000000 -18.508199 11.336903 -0.296846 -2.843723 3.765734 0.686544 -36.850622 -0.761838 -4.357302 67.205024 -0.027074 3.503154 -1.447652 0.376900 0.000000 -69.525000
23.764888 15.544821 2.863587 -155.869672 -80.042982 -163.626782 -8.208560 -2.005182 -0.963218 -14.234569 -0.756095 -80.125534 -1.698600 4.828322 56.934772 3.068277 9.268552 -20.703321 -1.887100 -0.000000 -17.867000 11.427167 -0.177206 -2.936566 3.372776 0.668694 -37.717687 -0.980294 -4.565142 69.891410 -0.056218 3.257702 -2.330510 0.304700 -0.000000 -68.811600
23.612346 15.455102 2.869745 -156.597021 -79.893345 -163.268937 -8.204529 -2.084776 -1.341110 -14.617876 -0.346276 -80.097486 -1.559353 5.059975 59.415637 3.180922 9.546594 -22.446192 -2.323100 0.000000 -17.663500 11.516971 -0.054462 -3.036170 2.962022 0.628914 -38.582372 -1.202325 -4.776036 72.457663 -0.078940 3.055689 -3.144521 0.245000 0.000000 -67.968400
23.460566 15.370218 2.875199 -157.465199 -79.795640 -162.804325 -8.204844 -2.150951 -1.711287 -15.022687 0.028103 -79.865499 -1.438129 5.251325 61.631827 3.298520 9.845993 -24.177603 -2.777800 -0.000000 -17.834100 11.603941 0.070348 -3.137906 2.548201 0.566174 -39.453163 -1.426246 -4.987652 74.896622 -0.098259 2.869462 -3.919350 0.192500 0.000001 -66.945800
23.308986 15.290593 2.880302 -158.430231 -79.753150 -162.271970 -8.212344 -2.201856 -2.065185 -15.433805 0.361667 -79.445503 -1.333293 5.404368 63.590400 3.416241 10.154366 -25.850738 -3.239200 0.000000 -18.285599 11.685737 0.197058 -3.238017 2.146628 0.479305 -40.340109 -1.650169 -5.197813 77.205732 -0.117191 2.673120 -4.686824 0.143400 0.000000 -65.714401
23.157052 15.216545 2.885475 -159.427093 -79.765836 -161.726526 -8.230008 -2.236339 -2.394290 -15.833090 0.652879 -78.862867 -1.242635 5.522410 65.306814 3.529555 10.459761 -27.427641 -3.694700 -0.000001 -18.905200 11.759542 0.325940 -3.332744 1.776386 0.370138 -41.254172 -1.871872 -5.403437 79.383430 -0.138477 2.445315 -5.474418 0.096400 0.000000 -64.264300
23.004365 15.148411 2.891109 -160.401656 -79.832207 -161.215465 -8.259856 -2.254448 -2.692262 -16.204562 0.902935 -78.146940 -1.163903 5.609749 66.802077 3.634601 10.751587 -28.882025 -4.132500 -0.000000 -19.573300 11.822498 0.457975 -3.419519 1.455030 0.241031 -42.205754 -2.088959 -5.601740 81.429264 -0.164151 2.173251 -6.302792 0.052100 0.000000 -62.608000
22.850648 15.086478 2.897467 -161.302406 -79.949061 -160.780964 -8.303106 -2.256941 -2.955096 -16.535895 1.115039 -77.328431 -1.095178 5.671265 68.100035 3.728739 11.021541 -30.201078 -4.543600 0.000000 -20.185300 11.871893 0.594296 -3.496430 1.197698 0.095987 -43.205097 -2.298699 -5.790176 83.342054 -0.195166 1.855377 -7.183642 0.012600 0.000000 -60.778000
22.695991 15.031069 2.904780 -162.075382 -80.111202 -160.469484 -8.360318 -2.245208 -3.181047 -16.816140 1.296412 -76.436300 -1.035182 5.712137 69.223532 3.810677 11.263870 -31.384793 -4.922300 -0.000000 -20.664700 11.904981 0.735864 -3.562107 1.018698 -0.058681 -44.259070 -2.498001 -5.966097 85.117608 -0.231600 1.499262 -8.117753 -0.018900 0.000000 -58.819600
22.540364 14.982543 2.913068 -162.690372 -80.313218 -160.304018 -8.430490 -2.221171 -3.371847 -17.041629 1.454542 -75.493658 -0.983533 5.736952 70.192248 3.880600 11.476562 -32.443320 -5.266701 0.000000 -20.976701 11.920082 0.883525 -3.616404 0.924732 -0.217677 -45.372683 -2.683692 -6.128196 86.750179 -0.272251 1.123002 -9.096026 -0.039400 0.000001 -56.789700
22.384196 14.941293 2.922237 -163.119728 -80.547876 -160.307967 -8.511857 -2.186954 -3.531736 -17.211339 1.599835 -74.517034 -0.940684 5.749690 71.020941 3.939665 11.659680 -33.393925 -5.578500 -0.000000 -21.125500 11.915954 1.037681 -3.659607 0.920215 -0.373329 -46.546968 -2.852432 -6.275462 88.230830 -0.315084 0.749833 -10.101795 -0.047400 -0.000000 -54.750100
22.227656 14.907718 2.932139 -163.342481 -80.806860 -160.500474 -8.602105 -2.144678 -3.666964 -17.326497 1.744526 -73.514031 -0.907768 5.753267 71.718498 3.989616 11.815355 -34.256454 -5.861300 -0.000001 -21.150200 11.892188 1.197957 -3.692509 1.005506 -0.517618 -47.777253 -3.000871 -6.407387 89.548063 -0.357444 0.405045 -11.112210 -0.043100 0.000000 -52.763201
22.071061 14.882209 2.942403 -163.359707 -81.081378 -160.879285 -8.698049 -2.096163 -3.785351 -17.393271 1.899317 -72.484243 -0.886600 5.749171 72.286888 4.032561 11.947231 -35.050170 -6.120100 -0.000000 -21.110701 11.849423 1.363577 -3.716494 1.174890 -0.643785 -49.055928 -3.125818 -6.524359 90.688444 -0.396314 0.113115 -12.101383 -0.029099 -0.000000 -50.887999
21.914467 14.865086 2.952714 -163.182796 -81.362304 -161.435599 -8.796581 -2.042975 -3.895060 -17.418307 2.074808 -71.419360 -0.879105 5.737687 72.722727 4.070317 12.059671 -35.789511 -6.359400 -0.000000 -21.078600 11.788859 1.532997 -3.733062 1.420130 -0.745222 -50.370199 -3.224381 -6.626930 91.637846 -0.428979 -0.107216 -13.043581 -0.009501 -0.000000 -49.176700
21.757929 14.856623 2.962654 -162.837221 -81.640654 -162.147055 -8.894830 -1.986253 -4.003400 -17.409277 2.278877 -70.306547 -0.887076 5.717943 73.018379 4.104193 12.156834 -36.482278 -6.582700 0.000000 -21.126400 11.712141 1.704088 -3.743600 1.730009 -0.817281 -51.705191 -3.294104 -6.715915 92.382951 -0.453448 -0.245038 -13.916123 0.010900 0.000000 -47.670800
21.601495 14.856981 2.971843 -162.368647 -81.908373 -162.972083 -8.990347 -1.926729 -4.116174 -17.374354 2.516100 -69.130790 -0.911884 5.688195 73.163055 4.134778 12.242525 -37.127751 -6.791300 0.000000 -21.314400 11.621077 1.874281 -3.749135 2.091173 -0.856818 -53.044006 -3.333050 -6.792026 92.911476 -0.468898 -0.299190 -14.700755 0.027700 0.000000 -46.396000
21.444987 14.866210 2.979931 -161.834246 -82.158410 -163.856282 -9.081471 -1.864805 -4.236221 -17.320606 2.786746 -67.879086 -0.954073 5.646105 73.145283 4.162045 12.320197 -37.717451 -6.984600 0.000001 -21.687500 11.517236 2.040644 -3.749579 2.490218 -0.862583 -54.372226 -3.339993 -6.855830 93.214556 -0.475948 -0.278709 -15.386018 0.038500 -0.000000 -45.361300
21.287587 14.884295 2.986614 -161.302410 -82.385644 -164.733131 -9.167438 -1.800193 -4.364643 -17.254640 3.088359 -66.538478 -1.013672 5.589210 72.953727 4.185252 12.391503 -38.238710 -7.160200 -0.000000 -22.246800 11.402014 2.200171 -3.745220 2.913780 -0.836730 -55.672961 -3.314028 -6.907599 93.285737 -0.476533 -0.200831 -15.970419 0.042700 0.000000 -44.541700
21.129184 14.910867 2.991635 -160.842195 -82.584006 -165.531778 -9.247821 -1.733310 -4.497855 -17.180376 3.412498 -65.112831 -1.088267 5.515547 72.584866 4.203608 12.461723 -38.668656 -7.314501 0.000000 -23.023100 11.276066 2.350216 -3.731783 3.350783 -0.774600 -56.944706 -3.256515 -6.947099 93.127498 -0.474329 -0.093508 -16.452342 0.042600 0.000000 -43.938100
